<?xml version="1.0" encoding="UTF-8" standalone="no"?>
<svg
   xmlns:dc="http://purl.org/dc/elements/1.1/"
   xmlns:cc="http://creativecommons.org/ns#"
   xmlns:rdf="http://www.w3.org/1999/02/22-rdf-syntax-ns#"
   xmlns:svg="http://www.w3.org/2000/svg"
   xmlns="http://www.w3.org/2000/svg"
   viewBox="0 0 5333.3335 5333.3335"
   height="5333.3335"
   width="5333.3335"
   xml:space="preserve"
   id="svg2"
   version="1.1"><metadata
     id="metadata8"><rdf:RDF><cc:Work
         rdf:about=""><dc:format>image/svg+xml</dc:format><dc:type
           rdf:resource="http://purl.org/dc/dcmitype/StillImage" /></cc:Work></rdf:RDF></metadata><defs
     id="defs6" /><g
     transform="matrix(1.3333333,0,0,-1.3333333,0,5333.3333)"
     id="g10"><g
       transform="scale(0.1)"
       id="g12"><g
         transform="scale(2.45399)"
         id="g14"><path
           id="path16"
           style="fill:#ffffff;fill-opacity:1;fill-rule:evenodd;stroke:none"
           d="M 0,0 H 16300 V 16300 H 0 V 0" /></g><g
         transform="scale(2.32979)"
         id="g18"><path
           id="path20"
           style="fill:#201d1d;fill-opacity:1;fill-rule:evenodd;stroke:none"
           d="m 7098.92,10201.9 c 53.35,53.2 119.41,146 166.19,199.2 46.75,52.8 73.19,65.9 119.41,112.5 46.79,46.2 113.36,125.8 152.98,252 39.66,125.8 53.35,298.1 66.57,444.1 13.22,145.5 26.44,265.1 60,390.9 33.01,126.2 85.89,258.5 112.8,384.8 26.45,125.7 26.45,244.8 39.67,410.6 13.22,165.8 40.13,377.7 66.57,556.6 26.44,179 53.35,325 86.4,430.9 33.01,106.5 73.18,172.4 152.97,232.2 79.8,59.8 199.21,112.5 292.22,159.2 93.01,46.1 159.58,86.2 226.16,132.3 66.05,46.6 132.67,99.4 186.02,126.2 52.84,26.4 93.01,26.4 106.24,52.7 13.22,26.9 0,79.6 -13.23,146 -13.21,66.5 -26.95,146 -33.56,192.2 -6.61,46.6 -6.61,59.8 -13.22,66.4 -6.61,6.6 -19.83,6.6 -46.23,26.4 -26.91,19.7 -66.57,59.8 -93.01,119.1 -26.96,59.8 -40.13,139.4 -46.74,238.8 -6.61,99.3 -6.61,219 -6.61,271.7 0,53.2 0,40 13.22,33.4 13.17,-6.5 40.13,-6.5 53.35,33 13.22,39.5 13.22,119.1 13.22,205.3 0,86.2 0,179 0,245.4 0,66.4 0,105.9 13.22,132.8 13.22,26.4 39.62,39.5 59.96,73 19.79,32.9 33.01,85.7 46.23,112.5 13.22,26.4 26.96,26.4 46.78,33 19.84,6.6 46.23,19.8 73.19,46.6 26.39,26.4 52.83,65.9 86.4,86.2 33.01,19.8 72.67,19.8 119.41,33 46.27,13.1 99.62,39.5 146.37,59.8 46.27,19.8 85.88,32.9 132.67,32.9 46.74,0 99.62,-13.1 152.97,-6.6 52.84,6.6 106.24,33 145.85,33 40.13,0 66.58,-26.4 100.14,-46.1 33.01,-19.8 72.67,-33.5 106.23,-40.1 32.97,-6.6 59.47,-6.6 92.97,-19.8 33.1,-13.1 73.2,-39.5 93,-59.8 19.8,-19.7 19.8,-32.9 19.8,-52.7 0,-19.8 0,-46.6 13.3,-59.8 13.1,-13.2 40.1,-13.2 66.5,-46.1 26.4,-33.5 53.4,-99.9 86.4,-159.2 33,-59.9 73.2,-112.6 99.6,-152.6 26.5,-39.6 39.7,-66.4 39.7,-99.4 0,-32.9 -13.2,-73 0.5,-99.3 13.2,-26.4 52.8,-40.1 112.8,-92.8 59.5,-53.3 139.3,-146 192.6,-284.9 53.4,-139.4 79.8,-325 139.8,-471 59.5,-145.5 152.5,-251.9 205.8,-304.7 52.9,-53.2 66.6,-53.2 39.7,-26.3 -26.5,26.3 -93,79.1 -152.5,132.3 -60,53.2 -113.3,105.9 -119.9,92.8 -6.6,-13.2 33.5,-92.8 86.4,-152.6 53.3,-59.3 119.9,-99.4 133.1,-112.6 13.2,-13.2 -26.9,0 -79.8,26.4 -53.3,26.9 -119.9,66.4 -146.3,59.8 -26.5,-6.6 -13.3,-59.8 6.6,-99.4 19.8,-40 46.7,-66.4 93,-92.7 46.7,-26.4 113.3,-53.3 179.4,-86.2 66.5,-33 133.1,-73 192.6,-119.1 60,-46.7 113.3,-99.9 186.5,-152.6 72.7,-53.3 165.7,-106 259.2,-152.6 93,-46.2 186,-86.2 258.7,-125.7 73.2,-40.1 126.5,-79.6 206.3,-159.2 79.8,-79.6 186,-198.8 358.8,-384.3 172.9,-186 411.7,-437.5 577.9,-590.1 166.2,-152.6 259.2,-205.3 332.4,-284.9 73.1,-79.6 126,-185.5 199.2,-265.1 73.2,-79.6 166.2,-132.8 226.2,-179 59.4,-46.6 86.4,-86.2 99.6,-146 13.2,-59.8 13.2,-139.4 6.6,-278.3 -6.6,-139.4 -19.8,-338.2 -46.3,-463.9 -26.9,-126.2 -66.5,-178.9 -106.7,-219 -39.6,-39.5 -79.8,-66.4 -99.6,-99.3 -19.8,-33 -19.8,-73 -19.8,-119.1 0,-46.7 0,-99.9 -39.7,-165.9 -40.1,-66.4 -119.9,-145.9 -186.5,-232.12 -66,-86.19 -119.4,-178.94 -165.7,-251.95 -46.7,-73.01 -86.4,-125.72 -133.1,-152.08 -46.3,-26.87 -99.6,-26.87 -126.1,0 -26.9,26.36 -26.9,79.07 13.2,145.47 39.7,66.44 119.5,146.02 159.6,219.03 39.7,72.97 39.7,138.85 33,178.95 -6.5,39.5 -19.8,52.7 -73.1,-13.2 -52.9,-66.39 -145.9,-212.41 -219,-324.95 -73.3,-112.54 -126.6,-192.12 -179.5,-225.6 -53.3,-32.92 -106.7,-19.74 -133.1,6.61 -26.4,26.87 -26.4,66.4 -39.7,73.01 -13.7,6.57 -40.1,-19.79 -60,-39.57 -19.8,-19.75 -33,-33.44 -59.9,-46.62 -26.4,-13.17 -66.1,-26.35 -86.4,-26.35 -19.8,0 -19.8,13.18 -19.8,39.53 0,26.87 0,66.4 19.8,119.62 20.3,52.71 60,119.16 86.4,178.95 26.9,59.32 40.1,112.54 33.5,132.33 -6.6,20.26 -33.5,6.56 -59.9,-13.18 -26.5,-19.79 -53.4,-46.14 -79.8,-53.22 -26.5,-6.61 -52.9,7.08 -73.2,33.43 -19.8,26.36 -33,66.45 -39.7,99.37 -6.6,32.94 -6.6,59.84 6.7,92.84 13.2,32.9 39.6,73 66.5,105.9 26.5,33.5 52.9,59.8 93,92.8 39.7,33.4 93,73 139.3,105.9 46.8,33.5 86.4,59.9 119.9,93.3 33.1,33 59.5,72.5 93.1,99.4 33,26.3 72.6,39.5 119.4,59.3 46.7,20.2 99.6,46.6 146.3,73 46.3,26.3 86.4,53.2 112.8,99.3 26.5,46.7 39.7,113.1 60,185.6 19.9,73 46.3,152.6 59.5,205.8 13.2,52.7 13.2,79.6 -33.1,99.4 -46.7,19.7 -139.7,32.9 -252.5,99.3 -112.9,66.4 -246,185.6 -385.2,298.1 -139.8,113.1 -285.7,219 -405.6,298.6 -119.5,79.6 -212.5,132.3 -259.2,125.7 -46.3,-6.5 -46.3,-73 -52.9,-185.5 -6.6,-112.6 -20.3,-271.7 -26.9,-411.1 -6.6,-139 -6.6,-258.6 -33.1,-457.3 -26.4,-198.8 -79.7,-477.1 -106.2,-702.7 -26.9,-225.1 -26.9,-397.39 -13.2,-576.37 13.2,-178.95 39.7,-364.5 46.2,-510.48 6.7,-146.02 -6.5,-251.95 -19.7,-371.1 -13.3,-119.11 -26.5,-251.96 -53.4,-377.68 -26.4,-126.23 -66.1,-245.34 -106.2,-351.31 -39.7,-106.45 -79.8,-199.25 -99.6,-311.75 -19.9,-112.54 -19.9,-245.39 -133.2,-457.29 -112.8,-212.43 -338.5,-503.91 -471.6,-676.29 -132.7,-172.33 -172.8,-225.08 -212.5,-284.92 -40.1,-59.79 -79.8,-125.67 -126.5,-185.51 -46.3,-59.83 -99.6,-112.58 -145.9,-152.58 -46.8,-39.58 -86.4,-66.4 -126.6,-79.63 -39.6,-13.17 -79.7,-13.17 -119.4,-26.35 -40.1,-13.18 -79.8,-39.53 -126.5,-79.58 -46.3,-39.53 -99.6,-92.8 -139.3,-192.12 -40.11,-99.36 -66.55,-245.38 -119.39,-377.71 -53.4,-132.81 -133.15,-251.91 -206.37,-351.32 -73.18,-99.37 -139.24,-178.95 -219.03,-245.35 -79.79,-66.4 -172.81,-119.15 -232.77,-159.19 -59.49,-39.54 -86.4,-66.41 -106.23,-86.19 -19.79,-19.75 -33.01,-32.92 -46.74,-26.36 -13.22,6.61 -26.45,32.97 -52.89,39.58 -26.39,6.56 -66.57,-6.61 -99.58,-26.4 -33.56,-19.74 -60,-46.61 -106.23,-79.58 -46.74,-32.96 -113.36,-73.01 -193.11,-125.72 -79.79,-53.22 -172.8,-119.62 -272.42,-165.76 -99.63,-46.66 -205.81,-73.01 -318.66,-73.01 -113.36,0 -232.76,26.35 -299.34,132.8 -66.1,105.97 -79.79,291.53 -79.79,450.68 0,158.69 13.69,291.53 79.79,463.91 66.58,172.33 185.98,384.24 319.17,596.66 132.63,211.91 279,423.81 372.01,596.19 93.01,172.33 133.14,305.13 166.19,417.72 33.05,112.54 59.97,205.3 112.8,318.35 53.4,112.54 133.19,244.87 172.81,317.84 40.17,73.01 40.17,86.19 -13.22,59.84 -53.35,-26.36 -159.59,-92.76 -278.99,-159.16 -119.46,-66.44 -252.6,-132.33 -325.78,-198.77 -73.19,-66.4 -86.41,-132.8 -139.25,-238.74 -53.35,-105.97 -146.36,-251.95 -252.59,-424.33 -106.24,-172.37 -226.16,-371.1 -319.17,-516.56 -93.01,-146.03 -159.59,-238.78 -232.26,-331.58 -73.18,-92.76 -152.97,-185.55 -252.59,-258.52 -99.58,-73.01 -219.55,-126.24 -319.17,-192.16 -99.58,-66.41 -179.42,-145.98 -239.38,-251.96 -59.45,-105.93 -99.62,-238.77 -152.46,-357.88 -53.35,-119.63 -119.93,-225.6 -259.17,-424.33 -139.79,-198.73 -352.22,-490.74 -531.63,-729 -179.42,-238.77 -325.78,-424.33 -438.58,-576.92 -112.84,-152.58 -192.64,-271.69 -265.82,-384.23 -73.18,-112.59 -139.75,-219.04 -159.58,-284.92 -19.83,-66.45 6.61,-92.8 13.22,-152.59 6.61,-59.84 -6.61,-152.63 -26.44,-232.21 -19.83,-79.58 -46.75,-145.47 -59.97,-178.95 -13.22,-32.96 -13.22,-32.96 -6.61,-52.7 6.61,-20.31 19.83,-59.84 33.05,-92.8 13.7,-33.44 26.92,-59.79 20.31,-99.37 -6.61,-40 -33.53,-93.27 -79.8,-145.97 -46.74,-53.23 -112.8,-105.98 -239.37,-152.594 -126.02,-46.141 -312.03,-86.188 -478.23,-112.541 -166.18,-26.356 -312.55,-40.047 -412.17,-33.48 -99.61,7.124 -152.98,33.48 -186.01,53.222 -33.03,19.788 -46.75,32.966 -66.58,40.047 -19.83,6.611 -46.24,6.611 -73.19,26.397 -26.42,19.744 -52.84,59.279 -59.45,119.109 -6.61,59.84 6.61,139.41 46.24,212.42 40.16,72.5 106.73,138.9 172.8,198.73 66.58,59.28 133.15,112.55 186.01,159.16 53.37,46.14 93.01,86.19 119.94,132.33 26.43,46.66 39.64,99.36 79.8,146.02 39.64,46.1 106.22,86.19 159.07,145.46 53.36,59.84 93.01,139.42 119.94,192.64 26.43,52.75 39.65,79.11 73.18,99.36 33.04,19.79 85.89,32.97 126.05,73.01 39.64,39.54 66.58,105.98 172.81,384.29 106.19,278.31 292.21,769.04 431.97,1106.66 139.24,338.15 232.25,523.7 298.82,663.11 66.62,138.9 106.24,232.17 172.81,324.92 66.57,92.8 159.58,185.56 252.6,284.92 93.01,99.37 186.02,205.34 265.81,311.27 79.8,105.98 146.37,212.43 205.82,318.4 59.96,105.93 113.35,211.86 179.41,291.49 66.57,79.57 146.37,132.8 219.55,205.29 73.18,73.01 139.28,165.77 179.42,278.83 39.61,112.54 52.83,244.87 106.23,430.89 53.35,185.56 146.36,423.82 239.33,596.19 93.01,172.38 186.03,278.31 245.99,378.19 59.49,99.37 85.89,192.12 126.06,291.49 39.62,99.36 93.01,205.34 166.2,324.45 73.18,119.62 166.15,251.95 219.03,384.8 53.35,132.28 66.57,265.12 106.7,377.67 39.66,112.54 106.24,205.3 145.9,271.7 40.13,66.44 53.35,105.97 33.52,112.54 -20.3,7.12 -73.18,-19.75 -133.15,-59.28 -59.96,-40.09 -126.06,-92.8 -259.2,-139.41 -132.63,-46.14 -332.39,-86.19 -458.41,-99.36 -126.54,-13.18 -179.42,0 -239.38,13.17 -59.45,13.18 -126.02,26.87 -166.19,46.62 -39.62,19.78 -52.84,46.14 -26.4,59.32 26.4,13.69 92.97,13.69 133.14,26.86 39.62,13.18 52.84,39.54 46.23,73.02 -6.61,32.96 -33.01,72.49 -73.18,105.93 -39.62,32.96 -93.02,59.32 -159.59,86.18 -66.06,26.36 -145.85,52.71 -199.2,66.41 -52.88,13.22 -79.79,13.22 -126.06,-20.26 -46.75,-32.97 -113.32,-99.37 -166.2,-132.33 -53.35,-33.44 -92.97,-33.44 -112.8,-26.87 -20.34,7.12 -20.34,20.3 -40.17,20.3 -19.79,0 -59.97,-13.18 -92.97,-20.3 -33.05,-6.57 -60.01,-6.57 -52.88,20.3 6.61,26.35 46.27,79.58 39.66,86.19 -6.61,6.56 -60.01,-33.48 -106.24,-46.66 -46.74,-13.18 -86.4,0 -99.62,26.87 -13.69,26.35 0,65.89 -20.3,79.06 -19.83,13.7 -72.71,0 -126.06,-19.74 -53.36,-19.79 -106.24,-46.14 -139.76,-53.22 -33.05,-6.61 -46.27,7.08 -26.44,40.04 19.83,32.92 73.18,86.19 139.76,132.3 66.1,46.6 145.89,86.2 212.46,113 66.57,26.4 119.41,39.6 179.42,46.2 59.96,6.6 126.53,6.6 192.59,6.6 66.57,0 133.14,0 199.72,13.2 66.1,13.7 132.67,40 192.63,53.2 59.49,13.2 112.84,13.2 145.85,-6.6 33.57,-19.8 46.79,-59.8 79.79,-99.3 33.57,-40.1 86.41,-79.7 126.58,-99.4 39.62,-19.8 66.06,-19.8 92.97,-6.6 26.44,13.2 52.88,39.5 86.4,59.3 33.05,20.3 72.67,33.4 126.07,86.2 v 0" /></g><g
         transform="scale(1.43832)"
         id="g22"><path
           id="path24"
           style="fill:#201d1d;fill-opacity:1;fill-rule:evenodd;stroke:none"
           d="m 9685.26,12080.1 c 1129.44,0 2050.64,947.6 2050.64,2110.4 0,1161.9 -921.2,2109.5 -2050.64,2109.5 -1129.44,0 -2050.65,-947.6 -2050.65,-2109.5 0,-1162.8 921.21,-2110.4 2050.65,-2110.4 v 0" /></g><g
         transform="scale(1.43832)"
         id="g26"><path
           id="path28"
           style="fill:none;stroke:#201d1d;stroke-width:3.35414004;stroke-linecap:butt;stroke-linejoin:miter;stroke-miterlimit:10;stroke-dasharray:none;stroke-opacity:1"
           d="m 9685.26,12080.1 c 1129.44,0 2050.64,947.6 2050.64,2110.4 0,1161.9 -921.2,2109.5 -2050.64,2109.5 -1129.44,0 -2050.65,-947.6 -2050.65,-2109.5 0,-1162.8 921.21,-2110.4 2050.65,-2110.4 z" /></g></g></g></svg>