<?xml version="1.0" encoding="UTF-8" standalone="no"?>
<svg
   xmlns:dc="http://purl.org/dc/elements/1.1/"
   xmlns:cc="http://creativecommons.org/ns#"
   xmlns:rdf="http://www.w3.org/1999/02/22-rdf-syntax-ns#"
   xmlns:svg="http://www.w3.org/2000/svg"
   xmlns="http://www.w3.org/2000/svg"
   viewBox="0 0 666.66669 666.66669"
   height="666.66669"
   width="666.66669"
   xml:space="preserve"
   id="svg2"
   version="1.1"><metadata
     id="metadata8"><rdf:RDF><cc:Work
         rdf:about=""><dc:format>image/svg+xml</dc:format><dc:type
           rdf:resource="http://purl.org/dc/dcmitype/StillImage" /></cc:Work></rdf:RDF></metadata><defs
     id="defs6" /><g
     transform="matrix(1.3333333,0,0,-1.3333333,0,666.66667)"
     id="g10"><g
       transform="scale(0.1)"
       id="g12"><path
         id="path14"
         style="fill:#ffffff;fill-opacity:1;fill-rule:nonzero;stroke:none"
         d="M 5000,0 H 0 V 5000 H 5000 V 0" /><path
         id="path16"
         style="fill:#000000;fill-opacity:1;fill-rule:nonzero;stroke:none"
         d="m 4058.91,1015.71 c -33.97,56.77 -76.24,80.21 -107.14,110.82 -30.91,30.61 -75.63,104.43 -112.36,125.87 -36.73,21.43 -60.8,27.64 -104.6,64.16 -43.81,36.53 -99.22,129.27 -158.56,214.65 -59.33,85.38 -104.33,148.02 -172.11,194.48 -67.78,46.45 -157.14,50.59 -177.3,64.15 -20.15,13.56 -45.14,57.06 -56.62,118.86 -11.47,61.8 -38.24,181.76 -72.13,314.95 -33.89,133.19 -86.34,196.03 -105.31,256.16 -18.98,60.12 -12.91,152.22 -15.87,182.12 -2.97,29.9 -10.59,59.91 -33.88,96.85 -23.29,36.93 -21.01,53.65 -23.18,77.93 -2.18,24.29 -16.09,100.13 -46.41,154.02 -30.31,53.88 -33.81,99.64 -51.51,136.43 -17.7,36.79 -49.03,124.26 -60.4,153.44 -11.37,29.17 -18.4,82.47 -38.38,139.82 -19.97,57.36 -34.17,85.68 -61.46,111.53 -27.3,25.86 -77.72,58.82 -136.64,87.35 -58.91,28.52 -157.95,55.27 -180.97,66.11 -23.02,10.83 -57.36,16.36 -58.49,45.28 -1.13,28.92 3.42,97.76 4.76,113.57 1.33,15.81 7.44,36.16 13.55,56.5 6.11,20.35 -6.89,22.54 -5.94,59.8 0.95,37.25 -15.13,101.03 -44.04,137.17 -28.9,36.15 -101.62,107.89 -222.85,68.11 -121.23,-39.79 -132.75,-89.82 -148.4,-155.58 -15.65,-65.77 6.24,-157.65 6.24,-157.65 0,0 -4.52,5.7 -13.04,0.33 -8.52,-5.38 0.36,-22.38 11.02,-43.15 10.65,-20.77 7.2,-46.78 22.55,-65.8 15.36,-19.03 22.74,-22.02 26.33,-27.7 3.58,-5.68 5.85,-26.24 5.85,-26.24 0,0 -64.87,-22.58 -93.14,-34.91 -28.28,-12.33 -63.06,-24.49 -99.14,-50.6 -36.08,-26.1 -61.86,-50.61 -93.49,-85.22 -31.64,-34.6 -42.22,-121 -43.14,-157.32 -0.93,-36.32 -21.13,-60.97 -54.04,-109.52 -32.92,-48.56 -30.17,-86.83 -47.12,-93.86 -16.96,-7.02 -24.36,-4.97 -61.75,-9.61 -37.4,-4.64 -103.16,-25.33 -103.16,-25.33 -1.13,-0.35 -2.61,-0.82 -4.24,-1.35 -48.89,59.74 -122.47,98.69 -205.7,100.81 -138.075,3.51 -254.915,-95.46 -277.739,-227.64 -20.738,-3.71 -20.766,-13.25 -17.496,-22.06 1.289,-3.48 6.988,-9.37 13.652,-15.41 -0.031,-0.88 -0.113,-1.75 -0.137,-2.64 -0.605,-23.86 1.86,-47.09 7.016,-69.31 -6.035,-4.03 -13.418,-9.72 -16.617,-15.25 -5.852,-10.1 -2.434,-22.3 9.555,-27.27 8.425,-3.48 17.738,-4.22 22.589,-4.36 4.762,-10.98 10.227,-21.58 16.329,-31.77 -1.684,-6.98 -4.579,-19.49 -6.094,-29 -2.219,-13.92 19.058,-20.06 36.828,-17.71 0.633,0.08 1.918,0.38 3.684,0.83 48.589,-52.38 117.39,-85.92 194.46,-87.88 141.14,-3.59 260.07,99.91 279.1,236.5 11.34,3.63 17.81,5.7 17.81,5.7 0,0 43.03,6.36 87.9,11.74 44.86,5.38 136.91,33.8 150.28,46.5 13.37,12.71 57.3,54.46 85.28,91.96 27.98,37.49 73.93,122.06 73.93,122.06 0,0 26.84,-7.21 32.36,-10.14 5.51,-2.94 8.46,-33.77 10.78,-52.46 2.32,-18.7 13.53,-54.4 9.56,-63.62 -3.96,-9.21 -10.67,-16.5 -10.67,-16.5 0,0 -18.69,-2.32 -44.98,-10.04 -26.29,-7.72 -44.15,-13.79 -59.36,-25.51 -15.21,-11.73 -21.99,-21.81 -29.63,-29.07 -7.64,-7.26 -2.36,-19.51 -2.36,-19.51 -11.39,-8.1 0.27,-26.1 10.51,-26.36 10.25,-0.26 34.7,8.44 55.19,7.91 20.48,-0.52 66.79,-11.94 67.46,-22.21 0.67,-10.27 -7.9,-17.51 -19.08,-17.22 -11.17,0.28 -40.93,2.9 -55.76,6.07 -14.83,3.18 -44.82,-3.52 -40.4,-12.95 4.42,-9.43 26.82,-8.13 41.72,-8.51 14.9,-0.38 40.62,-15.02 64.79,-17.49 24.17,-2.48 21.07,-50.86 31.73,-71.63 10.65,-20.78 43.7,-40.26 67.73,-48.32 24.02,-8.07 84.54,-46.88 84.54,-46.88 0,0 -24.69,-18.01 -74.2,-59.62 -49.52,-41.61 -125.15,-157.11 -165.78,-215.71 -40.63,-58.61 -123.61,-170.19 -143.37,-214.42 -19.76,-44.23 -27.97,-73.84 -38.42,-118.31 -10.45,-44.46 -31.98,-84.92 -56.42,-166.3 -24.43,-81.39 -44.94,-228.11 -56.37,-384.38 -11.43,-156.27 -29.97,-299.31 -30.49,-319.79 -0.53,-20.49 -19.53,-34.92 -34.72,-45.72 -15.18,-10.79 -23.1,-29.23 -33.55,-73.69 -10.45,-44.47 -20.76,-83.35 -62.5,-112.109 -41.73,-28.762 -119.76,-92.012 -140.91,-117.559 -21.15,-25.562 -22.81,-90.75 -15.88,-111.422 6.93,-20.68 44.23,-19.769 107.65,-17.648 63.43,2.109 123.6,22.949 176.93,68.187 53.34,45.231 73.69,39.133 111.08,43.77 37.4,4.64 75.55,39.082 79.84,61.332 4.3,22.258 10.86,133.919 4.41,173.229 -6.46,39.3 -7.75,61.7 -8.67,99 -0.91,37.3 21.85,126.18 40.13,185.36 18.28,59.17 52.21,147.77 107.02,250.75 54.8,102.98 57.88,224.05 53.43,268.89 -4.45,44.85 -12.96,76.75 7.91,91.13 20.87,14.38 47.47,34.2 47.47,34.2 0,0 64.38,-33.32 97.72,-41.62 33.34,-8.3 35.67,10.27 68.66,61.62 32.99,51.35 124.77,142.2 170.79,193.22 46.03,51.02 167.7,144.84 184.13,131.37 16.44,-13.46 92.91,-84.36 137.16,-176.82 44.24,-92.45 78.08,-227.5 104.93,-271.05 26.85,-43.55 25.1,-112.47 25.1,-112.47 0,0 0,0 41.15,-2.91 41.15,-2.91 97.93,-24.85 97.93,-24.85 0,0 33.87,-60.51 72.08,-96.89 38.22,-36.38 140.72,-109.82 190.35,-137.17 49.63,-27.36 79.33,-31.84 115.16,-88.66 35.83,-56.83 81.64,-87.82 181.42,-122.04 99.77,-34.22 191.39,-96.19 225.92,-130.62 34.54,-34.42 61.91,-57.49 61.48,-74.25 -0.42,-16.76 39.51,-58.78 70.37,-91.25 30.86,-32.47 50.49,-66.521 74.33,-82.029 23.83,-15.519 51.93,-83.332 65.32,-143.312 13.38,-59.988 96.11,-104.957 156.04,-93.43 59.94,11.52 80.13,72.512 87.04,124.52 6.91,52.011 -39.95,114.711 -73.92,171.491" /></g></g></svg>